name C:\Users\u0101727\Documents\MyRepositories\upper-imu-dc\Results\main_tracking\Case_48\ABD01_angularVelocities_bodyFrame.mot
datacolumns 4
datarows 105
range 6.31000000 7.35000000
endheader 
time	radius_imu_x	radius_imu_y	radius_imu_z	
          6.31000000	         -0.54222099	         -0.33085678	          0.32673457	
          6.32000000	         -0.54229530	         -0.32420899	          0.33128597	
          6.33000000	         -0.54219722	         -0.31723796	          0.33489178	
          6.34000000	         -0.54184883	         -0.31005690	          0.33746117	
          6.35000000	         -0.54117212	         -0.30279403	          0.33891473	
          6.36000000	         -0.54009035	         -0.29559764	          0.33918644	
          6.37000000	         -0.53853092	         -0.28863738	          0.33822587	
          6.38000000	         -0.53643044	         -0.28209833	          0.33600059	
          6.39000000	         -0.53374192	         -0.27616532	          0.33249877	
          6.40000000	         -0.53044260	         -0.27099822	          0.32773159	
          6.41000000	         -0.52653965	         -0.26670376	          0.32173457	
          6.42000000	         -0.52207028	         -0.26331309	          0.31456637	
          6.43000000	         -0.51709513	         -0.26077462	          0.30630484	
          6.44000000	         -0.51168781	         -0.25896567	          0.29704160	
          6.45000000	         -0.50592499	         -0.25771935	          0.28687760	
          6.46000000	         -0.49987970	         -0.25685845	          0.27592128	
          6.47000000	         -0.49361815	         -0.25622702	          0.26428974	
          6.48000000	         -0.48719990	         -0.25571257	          0.25211243	
          6.49000000	         -0.48068248	         -0.25525616	          0.23953478	
          6.50000000	         -0.47412435	         -0.25485067	          0.22672222	
          6.51000000	         -0.46758641	         -0.25453026	          0.21385982	
          6.52000000	         -0.46113260	         -0.25435765	          0.20114624	
          6.53000000	         -0.45482651	         -0.25441366	          0.18878564	
          6.54000000	         -0.44872669	         -0.25479026	          0.17697866	
          6.55000000	         -0.44288141	         -0.25558739	          0.16591402	
          6.56000000	         -0.43732372	         -0.25691198	          0.15576189	
          6.57000000	         -0.43206784	         -0.25887685	          0.14666953	
          6.58000000	         -0.42710757	         -0.26159703	          0.13875881	
          6.59000000	         -0.42241664	         -0.26518298	          0.13212500	
          6.60000000	         -0.41795103	         -0.26973170	          0.12683579	
          6.61000000	         -0.41365287	         -0.27531755	          0.12292984	
          6.62000000	         -0.40945555	         -0.28198440	          0.12041499	
          6.63000000	         -0.40528882	         -0.28974025	          0.11926677	
          6.64000000	         -0.40108319	         -0.29855431	          0.11942765	
          6.65000000	         -0.39677304	         -0.30835676	          0.12080731	
          6.66000000	         -0.39229889	         -0.31904085	          0.12328411	
          6.67000000	         -0.38760879	         -0.33046734	          0.12670792	
          6.68000000	         -0.38265909	         -0.34247068	          0.13090434	
          6.69000000	         -0.37741468	         -0.35486598	          0.13568048	
          6.70000000	         -0.37184881	         -0.36745543	          0.14083190	
          6.71000000	         -0.36594254	         -0.38003261	          0.14615039	
          6.72000000	         -0.35968380	         -0.39238396	          0.15143200	
          6.73000000	         -0.35306516	         -0.40428873	          0.15648433	
          6.74000000	         -0.34608036	         -0.41552025	          0.16113232	
          6.75000000	         -0.33872050	         -0.42585068	          0.16522279	
          6.76000000	         -0.33097206	         -0.43505877	          0.16862805	
          6.77000000	         -0.32281737	         -0.44293824	          0.17124930	
          6.78000000	         -0.31423725	         -0.44930428	          0.17301943	
          6.79000000	         -0.30521449	         -0.45399726	          0.17390471	
          6.80000000	         -0.29573794	         -0.45688388	          0.17390432	
          6.81000000	         -0.28580658	         -0.45785609	          0.17304703	
          6.82000000	         -0.27543309	         -0.45682728	          0.17138457	
          6.83000000	         -0.26464554	         -0.45372633	          0.16898198	
          6.84000000	         -0.25348600	         -0.44849072	          0.16590649	
          6.85000000	         -0.24200622	         -0.44106088	          0.16221685	
          6.86000000	         -0.23026138	         -0.43137709	          0.15795537	
          6.87000000	         -0.21830384	         -0.41937961	          0.15314440	
          6.88000000	         -0.20617809	         -0.40501249	          0.14778770	
          6.89000000	         -0.19391840	         -0.38823150	          0.14187605	
          6.90000000	         -0.18154937	         -0.36901592	          0.13539548	
          6.91000000	         -0.16908839	         -0.34738269	          0.12833553	
          6.92000000	         -0.15654853	         -0.32340015	          0.12069577	
          6.93000000	         -0.14394103	         -0.29719764	          0.11248983	
          6.94000000	         -0.13127688	         -0.26896687	          0.10374740	
          6.95000000	         -0.11856654	         -0.23895296	          0.09451397	
          6.96000000	         -0.10581655	         -0.20743585	          0.08484755	
          6.97000000	         -0.09302323	         -0.17470627	          0.07481199	
          6.98000000	         -0.08016477	         -0.14104191	          0.06446770	
          6.99000000	         -0.06719417	         -0.10668898	          0.05386119	
          7.00000000	         -0.05403392	         -0.07185145	          0.04301470	
          7.01000000	         -0.04057223	         -0.03668754	          0.03191732	
          7.02000000	         -0.02666072	         -0.00131232	          0.02051983	
          7.03000000	         -0.01211448	          0.03419388	          0.00873537	
          7.04000000	          0.00328379	          0.06977057	         -0.00355282	
          7.05000000	          0.01977435	          0.10535586	         -0.01647804	
          7.06000000	          0.03760631	          0.14086112	         -0.03017454	
          7.07000000	          0.05702113	          0.17614695	         -0.04476314	
          7.08000000	          0.07823540	          0.21100634	         -0.06033977	
          7.09000000	          0.10142468	          0.24515830	         -0.07696736	
          7.10000000	          0.12671029	          0.27825211	         -0.09467131	
          7.11000000	          0.15415055	          0.30987941	         -0.11343827	
          7.12000000	          0.18373718	          0.33959143	         -0.13321733	
          7.13000000	          0.21539686	          0.36692063	         -0.15392280	
          7.14000000	          0.24899761	          0.39140775	         -0.17543712	
          7.15000000	          0.28435939	          0.41263427	         -0.19761330	
          7.16000000	          0.32126783	          0.43025809	         -0.22027674	
          7.17000000	          0.35948886	          0.44404607	         -0.24322726	
          7.18000000	          0.39878078	          0.45389608	         -0.26624204	
          7.19000000	          0.43890136	          0.45984224	         -0.28907981	
          7.20000000	          0.47961042	          0.46204271	         -0.31148652	
          7.21000000	          0.52067104	          0.46075447	         -0.33320252	
          7.22000000	          0.56185141	          0.45630277	         -0.35397001	
          7.23000000	          0.60292742	          0.44905127	         -0.37353927	
          7.24000000	          0.64368506	          0.43937727	         -0.39167279	
          7.25000000	          0.68392216	          0.42765437	         -0.40814837	
          7.26000000	          0.72344936	          0.41424241	         -0.42276224	
          7.27000000	          0.76208884	          0.39948249	         -0.43533306	
          7.28000000	          0.79966992	          0.38369366	         -0.44570647	
          7.29000000	          0.83602183	          0.36716902	         -0.45375953	
          7.30000000	          0.87096647	          0.35017152	         -0.45940416	
          7.31000000	          0.90431456	          0.33293204	         -0.46258888	
          7.32000000	          0.93586751	          0.31565188	         -0.46329863	
          7.33000000	          0.96542447	          0.29851030	         -0.46155244	
          7.34000000	          0.99279243	          0.28167525	         -0.45739958	
          7.35000000	          1.01779614	          0.26531443	         -0.45091473	
